# xmcd
#
# Track frame offsets:
#  150
#  10887
#  22275
#  33232
#  46950
#  59555
#  69300
#  81970
#  93015
#  105105
#  116615
#  130527
#  142857
#  154562
#  168865
#  180000
#  189762
#  201397
#
# Disc length: 2863 seconds
#
# Revision: 0
# Processed by: cddbd v1.5.1PL2 Copyright (c) Steve Scherf et al.
# Submitted via: Collectorz.com_Music_Collector 6.9
#
DISCID=d30b2d12
DTITLE=Lloyd Glenn's Combo - Chica Boo
DYEAR=1994
DGENRE=Blues
TTITLE0=Chica Boo
TTITLE1=Black Fantasy
TTITLE2=I Can't Stay Here
TTITLE3=Fat Meat and Greens
TTITLE4=Alberta
TTITLE5=Old Time Shuffle
TTITLE6=Now Is The Time
TTITLE7=Century Room
TTITLE8=Good Times Back Home
TTITLE9=You're All Right With Me
TTITLE10=Congo Rhumba
TTITLE11=It's You I'm Thinking Of
TTITLE12=Sunday Morning Boogie
TTITLE13=My Woman
TTITLE14=Blues Hangoveri'M sO bLUE
TTITLE15=I'm So Blue
TTITLE16=Christmas Celebration
TTITLE17=I'm Contented
EXTD=
EXTT0=
EXTT1=
EXTT2=
EXTT3=
EXTT4=
EXTT5=
EXTT6=
EXTT7=
EXTT8=
EXTT9=
EXTT10=
EXTT11=
EXTT12=
EXTT13=
EXTT14=
EXTT15=
EXTT16=
EXTT17=
PLAYORDER=
